<?xml version="1.0"?>
<svg xmlns="http://www.w3.org/2000/svg" id="Capa_1" enable-background="new 0 0 509.986 509.986" height="512px" viewBox="0 0 509.986 509.986" width="512px"><g><path id="XMLID_547_" d="m155.989 136.799h16.898c20.709 0 37.557-16.848 37.557-37.557 0-20.708-16.848-37.556-37.557-37.556h-16.898c-20.709 0-37.557 16.848-37.557 37.556 0 20.709 16.848 37.557 37.557 37.557zm0-45.113h16.898c4.167 0 7.557 3.39 7.557 7.556s-3.39 7.557-7.557 7.557h-16.898c-4.167 0-7.557-3.39-7.557-7.557s3.391-7.556 7.557-7.556z" data-original="#000000" class="active-path" data-old_color="#000000" fill="#C5D9F1"/><path id="XMLID_549_" d="m247.059 106.799h71.891v30h-71.891z" data-original="#000000" class="active-path" data-old_color="#000000" fill="#C5D9F1"/><path id="XMLID_550_" d="m118.432 174.008h107.313v30h-107.313z" data-original="#000000" class="active-path" data-old_color="#000000" fill="#C5D9F1"/><path id="XMLID_551_" d="m118.432 228.328h200.518v30h-200.518z" data-original="#000000" class="active-path" data-old_color="#000000" fill="#C5D9F1"/><path id="XMLID_553_" d="m118.432 282.647h200.518v30h-200.518z" data-original="#000000" class="active-path" data-old_color="#000000" fill="#C5D9F1"/><path id="XMLID_556_" d="m386.863 331.43v-331.43h-338.647v470.081h248.963c16.153 24.048 43.6 39.905 74.683 39.905 49.575 0 89.907-40.332 89.907-89.907.001-44.465-32.447-81.488-74.906-88.649zm-308.647 108.651v-410.081h278.646v301.43c-13.993 2.36-26.898 7.963-37.913 16.009v-10.472h-200.517v30h180.936c-10.94 14.892-17.412 33.259-17.412 53.112 0 6.873.778 13.567 2.246 20.002zm293.647 39.905c-33.033 0-59.907-26.875-59.907-59.907s26.874-59.907 59.907-59.907 59.907 26.875 59.907 59.907-26.875 59.907-59.907 59.907z" data-original="#000000" class="active-path" data-old_color="#000000" fill="#C5D9F1"/><path id="XMLID_558_" d="m392.56 378.167-20.697 20.698-20.698-20.698-21.214 21.214 20.698 20.698-20.698 20.697 21.214 21.214 20.698-20.698 20.697 20.698 21.214-21.214-20.698-20.697 20.698-20.698z" data-original="#000000" class="active-path" data-old_color="#000000" fill="#C5D9F1"/></g> </svg>
